# xmcd
#
# Track frame offsets: 
#        150
#        22130
#        42657
#        57432
#        99644
#        125414
#        142934
#        157646
#        174811
#        200159
#        210734
#        229877
#        258236
#        270516
#        292446
#        310380
#        333458
#
# Disc length: 4786 seconds
#
# Revision: 0
# Processed by: cddbd v1.5.2PL0 Copyright (c) Steve Scherf et al.
# Submitted via: ExactAudioCopy v0.95a5
#
DISCID=0412b011
DTITLE=Various Artist - Akella Presents - Modern Electric Blues - vol.13  CD1
DYEAR=2010
DGENRE=Blues
TTITLE0=Rule The World - DUKE ROBILLARD
TTITLE1=Cold Fingers - TONY JOE WHITE
TTITLE2=Ashes In The Wind - MATT SMITH
TTITLE3=Don't Shake My Hand - The HOAX
TTITLE4=Seven Desires - BRIAN STOLTZ
TTITLE5=Black Magic Woman - LARRY McCRAY
TTITLE6=Let It Cry For You - BILLY EARL McCLELLAND
TTITLE7=Sun Goes Down at Midnight - HENRY COOPER
TTITLE8=Stay In F.L.A. - TOMMY McCOY and LUCKY PETERSON
TTITLE9=Get It Right - GEORGE TERRY
TTITLE10=She's Got The Goods - JOHN KAY
TTITLE11=Blues Walkin' By My Side - SONNY BLACK and The DUKES
TTITLE12=Sittin' On It - HENRY COOPER
TTITLE13=Everything Is Broken - R.L. BURNSIDE
TTITLE14=I want to spent X-mas with You - FERNANDO JONES
TTITLE15=Louisiana (Been Callin' Me) - TOM PRINCIPATO
TTITLE16=Long Grey Mare - STORM WARNING
EXTD=
EXTT0=
EXTT1=
EXTT2=
EXTT3=
EXTT4=
EXTT5=
EXTT6=
EXTT7=
EXTT8=
EXTT9=
EXTT10=
EXTT11=
EXTT12=
EXTT13=
EXTT14=
EXTT15=
EXTT16=
PLAYORDER=
